<?xml version="1.0" encoding="UTF-8"?>
<svg width="22px" height="22px" viewBox="0 0 22 22" version="1.1" xmlns="http://www.w3.org/2000/svg" xmlns:xlink="http://www.w3.org/1999/xlink">
    <!-- Generator: Sketch 53.2 (72643) - https://sketchapp.com -->
    <title>access-alarms</title>
    <desc>Created with Sketch.</desc>
    <g id="Page-1" stroke="none" stroke-width="1" fill="none" fill-rule="evenodd">
        <g id="课程简介" transform="translate(-282.000000, -555.000000)" fill="#4B5B6E" fill-rule="nonzero">
            <g id="Group" transform="translate(17.000000, 122.000000)">
                <g id="Details" transform="translate(34.000000, 432.000000)">
                    <g id="Group-9" transform="translate(211.000000, 1.000000)">
                        <g id="access-alarms" transform="translate(20.000000, 0.000000)">
                            <path d="M22,4.24752475 L16.94,0 L15.51,1.63366337 L20.57,5.88118812 L22,4.24752475 Z M6.49,1.74257426 L5.06,0.108910891 L0,4.24752475 L1.43,5.88118812 L6.49,1.74257426 Z M11.55,6.75247525 L9.9,6.75247525 L9.9,13.2871287 L15.07,16.4455446 L15.95,15.1386139 L11.55,12.5247525 L11.55,6.75247525 Z M11,2.3960396 C5.5,2.3960396 1.1,6.75247525 1.1,12.1980198 C1.1,17.6435644 5.5,22 11,22 C16.5,22 20.9,17.6435644 20.9,12.1980198 C20.9,6.75247525 16.5,2.3960396 11,2.3960396 Z M11,19.8217822 C6.71,19.8217822 3.3,16.4455446 3.3,12.1980198 C3.3,7.95049505 6.71,4.57425743 11,4.57425743 C15.29,4.57425743 18.7,7.95049505 18.7,12.1980198 C18.7,16.4455446 15.29,19.8217822 11,19.8217822 Z" id="形状"></path>
                        </g>
                    </g>
                </g>
            </g>
        </g>
    </g>
</svg>