<?xml version="1.0" encoding="UTF-8"?>
<svg width="128px" height="128px" viewBox="0 0 128 128" version="1.1" xmlns="http://www.w3.org/2000/svg" xmlns:xlink="http://www.w3.org/1999/xlink">
    <!-- Generator: Sketch 53.2 (72643) - https://sketchapp.com -->
    <title>eraser</title>
    <desc>Created with Sketch.</desc>
    <g id="Page-1" stroke="none" stroke-width="1" fill="none" fill-rule="evenodd">
        <g id="画板" transform="translate(-334.000000, -538.000000)" fill-rule="nonzero">
            <g id="eraser" transform="translate(334.000000, 538.000000)">
                <path d="M70.8352826,22.0107213 L88.763158,4.08284594 C90.7115011,2.13450305 93.8693958,2.13450305 95.8177387,4.08284594 L124.04191,32.3060428 C125.990253,34.2543859 125.990253,37.4132552 124.04191,39.3615984 L106.114035,57.2894737 C101.903509,53.0789474 75.0302144,26.2046785 70.8352826,22.0107213 Z" id="Shape" fill="#3A4379"></path>
                <path d="M67.3070175,18.4824562 L20.1559454,65.6345029 C22.2670567,67.7465887 60.723197,106.202729 62.4902535,107.968811 L109.6423,60.8167643 C108.109162,59.2846003 68.9259261,20.1003899 67.3070175,18.4824562 Z" id="Shape" fill="#FFFFFF"></path>
                <path d="M58.9619884,104.44152 L38.0409358,125.365497 L36.0799219,125.365497 L4.1218323,94.9288498 C2.26803125,92.9649124 2.3099414,89.8840155 4.22124763,87.9756336 L23.6832359,69.1617934 C25.162768,70.6413257 56.4230018,101.90156 58.9619884,104.44152 L58.9619884,104.44152 Z" id="Shape" fill="#FFFFFF"></path>
                <path d="M115.025341,125.365497 C115.025341,123.988304 113.908382,122.87037 112.531189,122.87037 C111.153996,122.87037 110.036062,123.988304 110.036062,125.365497 C110.036062,126.74269 111.153996,127.859649 112.531189,127.859649 C113.908382,127.859649 115.025341,126.74269 115.025341,125.365497 L115.025341,125.365497 Z" id="Shape" fill="#000000"></path>
                <path d="M105.046784,125.365497 C105.046784,123.988304 103.92885,122.87037 102.551657,122.87037 C101.174464,122.87037 100.05653,123.988304 100.05653,125.365497 C100.05653,126.74269 101.174464,127.859649 102.551657,127.859649 C103.92885,127.859649 105.046784,126.74269 105.046784,125.365497 L105.046784,125.365497 Z" id="Shape" fill="#000000"></path>
                <path d="M73.5068225,66.0935673 C72.1276804,66.0935673 71.0126706,67.211501 71.0126706,68.588694 C71.0126706,69.9678363 72.1276804,71.0828461 73.5068225,71.0828461 C74.8840157,71.0828461 76.0019492,69.9678363 76.0019492,68.588694 C76.0019492,67.211501 74.8840157,66.0935673 73.5068225,66.0935673 Z" id="Shape" fill="#000000"></path>
                <path d="M2.40058486,96.7348927 L34.3596491,127.17154 C34.8235867,127.614035 35.4395711,127.859649 36.0799219,127.859649 L92.5721248,127.859649 C93.9502923,127.859649 95.0672515,126.74269 95.0672515,125.365497 C95.0672515,123.987329 93.9502923,122.87037 92.5721248,122.87037 L44.0633528,122.87037 L58.9619884,107.969786 L60.7261208,109.732943 C61.7007797,110.707602 63.279727,110.707602 64.2543859,109.732943 L111.406433,62.5818713 C112.380117,61.6072124 112.380117,60.0272904 111.406433,59.0526316 L109.6423,57.2894737 L125.806043,41.1257311 C128.730994,38.2007796 128.730994,33.4678361 125.806043,30.5419103 L97.5818714,2.31871351 C94.6578948,-0.606237942 89.9239767,-0.607212538 86.9990253,2.31871351 L70.8352826,18.4824562 L69.0711502,16.7183235 C68.0974659,15.7446393 66.5175439,15.7446393 65.5428851,16.7183235 L18.3908381,63.8703704 C17.4171541,64.8450293 17.4171541,66.4239767 18.3908381,67.3986355 L20.1247563,69.1325535 L2.48732943,86.1812867 C2.47758297,86.1910331 2.46783626,86.2007796 2.45808954,86.2095517 C-0.427875306,89.0925925 -0.494152109,93.6734892 2.30701761,96.6413254 C2.33723209,96.6734893 2.36842118,96.7046784 2.40058486,96.7348927 L2.40058486,96.7348927 Z M62.4902535,104.440546 L51.9064327,93.8567251 L68.288499,77.4746588 C69.2621833,76.5009745 69.2621833,74.9210526 68.288499,73.9463937 C67.3138402,72.9727097 65.7339182,72.9727097 64.7592593,73.9463937 L48.3781676,90.32846 L37.7943469,79.7446393 L81.4181287,36.1218323 L92.002924,46.7066276 L78.8654971,59.8411305 C77.8908382,60.8157894 77.8908382,62.3947368 78.8654971,63.3693956 C79.8391813,64.3430799 81.4191033,64.3440545 82.3937622,63.3693956 L95.5311891,50.2339181 C99.4639375,54.1676413 102.300195,57.0038988 106.114035,60.8167643 L62.4902535,104.440546 Z M90.5272904,5.84697862 C91.5019493,4.87134515 93.0789474,4.87134515 94.0536063,5.84697862 L122.277778,34.0701754 C123.252437,35.0448343 123.252437,36.6228071 122.277778,37.5974659 L106.114035,53.7612086 C104.429824,52.0760235 77.6091619,25.2553606 74.3635477,22.0107213 L90.5272904,5.84697862 Z M67.3070175,22.0107213 C71.1208576,25.8235868 73.9561404,28.659844 77.8898636,32.5935672 L34.2660818,76.2163744 L23.6832359,65.6345029 L67.3070175,22.0107213 Z M5.97270955,89.7524368 L23.653996,72.6608188 L55.4346979,104.44152 L37.0419103,122.836257 L5.89863548,93.1754387 C5.00584795,92.1900585 5.03606244,90.6998049 5.97270955,89.7524368 Z" id="Shape" fill="#000000"></path>
            </g>
        </g>
    </g>
</svg>