<?xml version="1.0" encoding="UTF-8"?>
<svg width="24px" height="20px" viewBox="0 0 24 20" version="1.1" xmlns="http://www.w3.org/2000/svg" xmlns:xlink="http://www.w3.org/1999/xlink">
    <!-- Generator: Sketch 53.2 (72643) - https://sketchapp.com -->
    <title>ic_important_devices</title>
    <desc>Created with Sketch.</desc>
    <defs>
        <path d="M23,9.01 L18,9 C17.45,9 17,9.45 17,10 L17,19 C17,19.55 17.45,20 18,20 L23,20 C23.55,20 24,19.55 24,19 L24,10 C24,9.45 23.55,9.01 23,9.01 L23,9.01 Z M23,18 L18,18 L18,11 L23,11 L23,18 L23,18 Z M20,0 L2,0 C0.89,0 0,0.89 0,2 L0,14 C0,15.1 0.89,16 2,16 L9,16 L9,18 L7,18 L7,20 L15,20 L15,18 L13,18 L13,16 L15,16 L15,14 L2,14 L2,2 L20,2 L20,7 L22,7 L22,2 C22,0.89 21.1,0 20,0 L20,0 Z M11.97,7 L11,4 L10.03,7 L7,7 L9.47,8.76 L8.53,11.67 L11,9.87 L13.47,11.67 L12.53,8.76 L15,7 L11.97,7 L11.97,7 Z" id="path-1"></path>
        <rect id="path-3" x="0" y="0" width="50" height="50"></rect>
    </defs>
    <g id="Page-1" stroke="none" stroke-width="1" fill="none" fill-rule="evenodd">
        <g id="首页" transform="translate(-64.000000, -355.000000)">
            <g id="分组-13" transform="translate(64.000000, 352.000000)">
                <g id="ic_important_devices" transform="translate(0.000000, 3.000000)">
                    <mask id="mask-2" fill="white">
                        <use xlink:href="#path-1"></use>
                    </mask>
                    <g id="Mask"></g>
                    <g id="🎨-Color" mask="url(#mask-2)">
                        <g transform="translate(-13.000000, -15.000000)">
                            <mask id="mask-4" fill="white">
                                <use xlink:href="#path-3"></use>
                            </mask>
                            <use id="Black" stroke="none" fill="#FFFFFF" fill-rule="evenodd" xlink:href="#path-3"></use>
                        </g>
                    </g>
                </g>
            </g>
        </g>
    </g>
</svg>