<?xml version="1.0" encoding="UTF-8"?>
<svg width="14px" height="20px" viewBox="0 0 14 20" version="1.1" xmlns="http://www.w3.org/2000/svg" xmlns:xlink="http://www.w3.org/1999/xlink">
    <!-- Generator: Sketch 53.2 (72643) - https://sketchapp.com -->
    <title>ic_lightbulb_outline</title>
    <desc>Created with Sketch.</desc>
    <defs>
        <path d="M9,21 C9,21.55 9.45,22 10,22 L14,22 C14.55,22 15,21.55 15,21 L15,20 L9,20 L9,21 L9,21 Z M12,2 C8.14,2 5,5.14 5,9 C5,11.38 6.19,13.47 8,14.74 L8,17 C8,17.55 8.45,18 9,18 L15,18 C15.55,18 16,17.55 16,17 L16,14.74 C17.81,13.47 19,11.38 19,9 C19,5.14 15.86,2 12,2 L12,2 Z M14.85,13.1 L14,13.7 L14,16 L10,16 L10,13.7 L9.15,13.1 C7.8,12.16 7,10.63 7,9 C7,6.24 9.24,4 12,4 C14.76,4 17,6.24 17,9 C17,10.63 16.2,12.16 14.85,13.1 L14.85,13.1 Z" id="path-1"></path>
        <rect id="path-3" x="0" y="0" width="50" height="50"></rect>
    </defs>
    <g id="🔘-Icons" stroke="none" stroke-width="1" fill="none" fill-rule="evenodd">
        <g id="Material_icons_library" transform="translate(-149.000000, -719.000000)">
            <g id="ic_lightbulb_outline" transform="translate(144.000000, 717.000000)">
                <mask id="mask-2" fill="white">
                    <use xlink:href="#path-1"></use>
                </mask>
                <g id="Mask"></g>
                <g id="Colors/White" mask="url(#mask-2)">
                    <g transform="translate(-13.000000, -13.000000)">
                        <mask id="mask-4" fill="white">
                            <use xlink:href="#path-3"></use>
                        </mask>
                        <use id="White" stroke="none" fill="#FFFFFF" fill-rule="evenodd" xlink:href="#path-3"></use>
                    </g>
                </g>
            </g>
        </g>
    </g>
</svg>