<?xml version="1.0" encoding="UTF-8"?>
<svg width="51px" height="51px" viewBox="0 0 51 51" version="1.1" xmlns="http://www.w3.org/2000/svg" xmlns:xlink="http://www.w3.org/1999/xlink">
    <!-- Generator: Sketch 53.2 (72643) - https://sketchapp.com -->
    <title>pencil</title>
    <desc>Created with Sketch.</desc>
    <g id="Page-1" stroke="none" stroke-width="1" fill="none" fill-rule="evenodd">
        <g id="作品详情展开" transform="translate(-120.000000, -823.000000)" fill-rule="nonzero">
            <g id="pencil" transform="translate(120.000000, 823.000000)">
                <path d="M50,40.0291168 L40.0861846,50 L24,33.8796648 L33.9149891,24 C48.9789655,39.0128492 44.0705667,34.1205751 50,40.0291168 L50,40.0291168 Z" id="Shape" fill="#FFFFFF"></path>
                <path d="M45.5454968,5.45450314 C47.4840586,7.39151341 47.4856101,10.5375068 45.5454968,12.4756808 L44.0211775,14 L37,6.97882238 L38.5243193,5.45450314 C40.463269,3.51516562 43.6069351,3.51516562 45.5454968,5.45450314 Z" id="Shape" fill="#C61820"></path>
                <polygon id="Shape" fill="#FFFFFF" points="34 9.66693682 37.6669367 6 45 13.3330633 41.3330634 17"></polygon>
                <path d="M41,17.0211445 C38.4870182,19.5337383 17.6807395,40.3400171 15.0211445,43 L8,35.9784675 C11.3286632,32.6501922 31.8203829,12.1584725 33.9788554,10 L41,17.0211445 Z" id="Shape" fill="#F3CA1E"></path>
                <path d="M27,17.0884583 L17.1271692,27 L1,10.9111506 L10.973745,1 C14.0845498,4.12287881 23.8775064,13.9538453 27,17.0884583 Z" id="Shape" fill="#FFFFFF"></path>
                <polygon id="Shape" fill="#FFFFFF" points="15 42.7925874 9.05219676 45 6 41.9498458 8.20240337 36"></polygon>
                <polygon id="Shape" fill="#425072" points="8 46.1456544 3 48 4.85083299 43"></polygon>
                <path d="M17.2924257,33.7073242 C17.6834986,34.0975586 18.3167945,34.0975586 18.7066953,33.7073242 C19.0977682,33.3163086 19.0977682,32.6834961 18.7066953,32.2932617 C18.3167945,31.9022461 17.6834986,31.9022461 17.2924257,32.2932617 C16.9025248,32.6834961 16.9025248,33.3163086 17.2924257,33.7073242 Z" id="Shape" fill="#FFFFFF"></path>
                <path d="M21.7711752,30.6962326 L31.6964814,20.769555 C32.1012404,20.3645993 32.1012404,19.7081663 31.6960762,19.3032106 C31.2905069,18.8986599 30.634141,18.8990649 30.2289769,19.3036155 L20.3036706,29.2302933 C19.8985064,29.6352489 19.8989117,30.291682 20.3040758,30.6966377 C20.70924,31.1011883 21.366011,31.1011883 21.7711752,30.6962326 L21.7711752,30.6962326 Z" id="Shape" fill="#FFFFFF"></path>
                <path d="M15.6904818,26.867021 L7.11120322,35.4477483 C7.0158736,35.543094 6.93649708,35.6629572 6.88552488,35.7972196 C6.88396848,35.8003329 6.88241208,35.8034462 6.88124475,35.8065595 C6.08903598,37.949309 3.68556174,44.4491641 2.74004728,47.0059865 C2.60541853,47.3710245 2.69530079,47.781595 2.970784,48.0563463 C3.24393256,48.3295411 3.65404461,48.4217735 4.02135556,48.2855652 C6.49914803,47.365187 13.0570491,44.9290061 15.2056625,44.1308262 C15.3309529,44.0845154 15.4616907,44.0031796 15.563246,43.9016072 L24.1417464,35.3216583 L39.4369009,50.7061795 C39.6240584,50.8941468 39.878141,51 40.1435076,51 L40.1442858,51 C40.4096525,50.9996109 40.6641242,50.8933685 40.8508925,50.705012 L50.7114792,40.750917 C51.097467,40.3613616 51.0959107,39.7332472 50.7083664,39.3452484 C49.948064,38.5848176 36.0174851,24.6511083 35.4139901,24.0475114 C38.0151275,21.4459349 44.284705,15.1752987 46.6757282,12.7838719 C49.0118879,10.4500418 49.0134444,6.6650107 46.6761172,4.33001306 C44.3411247,1.99345866 40.5602343,1.99306951 38.2236854,4.33001306 L26.96078,15.59482 C26.3833549,15.0172972 12.5309851,1.1621995 11.6605672,0.292023808 C11.273023,-0.0959750415 10.6450147,-0.0975317066 10.255525,0.288521237 L0.295328432,10.1496055 C0.106614577,10.3364053 0.00039016968,10.5909201 1.06910324e-06,10.8567206 C-0.000388031474,11.122132 0.10544735,11.3770358 0.29377203,11.5642249 L15.6904818,26.867021 Z M27.6650521,17.708382 C27.6650521,17.708382 27.6650521,17.708382 27.6654412,17.7079929 C27.6654412,17.7079929 27.6654412,17.7079929 27.6654412,17.7076036 L33.8770428,11.4953424 L39.5116082,17.1312484 L33.3011739,23.3423421 C33.3011739,23.3427313 33.3011739,23.3427313 33.3007849,23.3427313 L33.3007849,23.3431205 L14.8589739,41.7880451 L9.22440848,36.1521392 L27.6650521,17.708382 Z M37.3991812,7.97260938 L43.0337468,13.6085153 L40.9205415,15.7220774 L35.2855869,10.0865606 L37.3991812,7.97260938 Z M8.94853619,44.3296901 L6.68941819,42.0701907 L8.21041232,37.956314 L13.0570491,42.8037691 L8.94853619,44.3296901 Z M5.92872654,44.1273236 L6.89408515,45.0928452 L5.36102877,45.6621954 L5.92872654,44.1273236 Z M36.3159252,27.7675519 L32.047881,32.0355384 C31.6587804,32.4243154 31.6587804,33.0551539 32.047881,33.4443202 C32.4365925,33.8334865 33.0673245,33.8334865 33.4564251,33.4447095 L37.7244693,29.1767229 L40.7411661,32.193929 L37.8820551,35.0531336 C37.4933436,35.4422999 37.4933436,36.0731384 37.8820551,36.4623047 C38.2711557,36.851471 38.9018877,36.8510818 39.2909883,36.4623047 L42.1500993,33.6027109 L45.1671851,36.6206954 L40.89953,40.8886819 C40.5104294,41.277459 40.5104294,41.9082976 40.89953,42.2974638 C41.2882415,42.6866301 41.9189735,42.6866301 42.3080741,42.2974638 L46.5761184,38.0298664 L48.5986632,40.0531419 C40.187476,48.4583551 40.1423403,48.5895042 40.1423403,48.5895042 L25.5506795,33.9124873 L34.005446,25.4562933 L36.3159252,27.7675519 Z M45.2675731,5.73918411 C46.8247536,7.29468168 46.8255319,9.81764666 45.267184,11.3747009 L44.4426799,12.1993443 L38.8077253,6.56382737 L39.6326185,5.73879487 C41.1894099,4.1813515 43.7100035,4.18018397 45.2675731,5.73918411 Z M13.1753357,4.62500105 L8.90806973,8.89182007 C8.51935823,9.2805972 8.51935823,9.91143571 8.90806973,10.300602 C9.29717031,10.6897683 9.92790232,10.6897683 10.3170029,10.3009911 L14.5842689,6.03378296 L17.6009657,9.05137819 L14.7426328,11.9094153 C14.3535322,12.2985816 14.3535322,12.9294202 14.7422437,13.3185865 C15.1313443,13.7073636 15.7616872,13.7077527 16.1511769,13.3185865 L19.0098989,10.4601602 L21.8258197,13.2769456 L17.5593319,17.5445429 C17.1706204,17.9337092 17.1706204,18.5645478 17.5593319,18.9537141 C17.9484325,19.3424912 18.5791645,19.3428804 18.9682651,18.953325 L23.2347529,14.6857275 L25.552236,17.0036019 L17.0990259,25.4582391 L2.41047917,10.8590556 C2.41047917,10.8590556 2.5486099,10.8139123 10.9527932,2.40169415 L13.1753357,4.62500105 Z" id="Shape" fill="#000000"></path>
            </g>
        </g>
    </g>
</svg>