<?xml version="1.0" encoding="UTF-8"?>
<svg width="50px" height="61px" viewBox="0 0 50 61" version="1.1" xmlns="http://www.w3.org/2000/svg" xmlns:xlink="http://www.w3.org/1999/xlink">
    <!-- Generator: Sketch 53.2 (72643) - https://sketchapp.com -->
    <title>pencil-case</title>
    <desc>Created with Sketch.</desc>
    <g id="Page-1" stroke="none" stroke-width="1" fill="none" fill-rule="evenodd">
        <g id="作品详情展开" transform="translate(-31.000000, -818.000000)" fill-rule="nonzero">
            <g id="pencil-case" transform="translate(31.000000, 818.000000)">
                <path d="M39,50.4109589 C39,55.7064695 34.7463379,60 29.5,60 L10.5,60 C5.25366205,60 1,55.7064695 1,50.4109589 L1,25 L39,25 L39,50.4109589 Z" id="Shape" fill="#C61820"></path>
                <path d="M29,1 L39,1 L39,25 L29,25 C29,19.1682813 29,5.99875 29,1 Z" id="Shape" fill="#FFFFFF"></path>
                <path d="M25,11.3333333 C25,13.9250651 22.7456055,16 20,16 C17.2553711,16 15,13.9259765 15,11.3333333 C15,8.46816403 16.1660156,7.36666667 20,2 C23.805664,7.33020833 25,8.46041667 25,11.3333333 Z" id="Shape" fill="#425072"></path>
                <polygon id="Shape" fill="#FFFFFF" points="22.9814453 15 18.0185547 15 18 15.0316093 18 25 23 25 23 15.0316093"></polygon>
                <path d="M6,1 L11,11 C9.790039,11 2.2177735,11 1,11 L6,1 Z" id="Shape" fill="#FFFFFF"></path>
                <path d="M1,11 L1,25 L11,25 L11,11 C9.790039,11 2.2177735,11 1,11 Z" id="Shape" fill="#F3CA1E"></path>
                <path d="M27,31 C27.5519531,31 28,30.5519531 28,30 C28,29.4480469 27.5519531,29 27,29 C26.4480469,29 26,29.4480469 26,30 C26,30.5519531 26.4480469,31 27,31 Z" id="Shape" fill="#FFFFFF"></path>
                <path d="M10.7142857,61 L29.7619048,61 C35.2673921,61 39.8153832,56.8226318 40.4096912,51.46875 L44.047619,51.46875 C47.329799,51.46875 50,48.796463 50,45.5117188 L50,34.5507812 C50,31.266037 47.329799,28.59375 44.047619,28.59375 L40.4761905,28.59375 C40.4761905,27.5768662 40.4761905,2.19572455 40.4761905,1.19140625 C40.4761905,0.533340395 39.9432664,1.05818132e-16 39.2857143,1.05818132e-16 L29.7619048,1.05818132e-16 C29.1043526,1.05818132e-16 28.5714286,0.533340395 28.5714286,1.19140625 L28.5714286,23.828125 L23.8095238,23.828125 L23.8095238,15.4859543 C25.2929688,14.3694763 26.1904762,12.6047058 26.1904762,10.7226562 C26.1904762,7.77439114 25.0827752,6.23580173 22.7041481,2.72301486 C22.2688802,2.08030707 21.7754836,1.35196683 21.2286086,0.530548096 C21.0081845,0.199188232 20.6361607,1.05818132e-16 20.2380952,1.05818132e-16 C19.8400298,1.05818132e-16 19.468471,0.199188232 19.2475819,0.530548096 C18.703962,1.34684759 18.2128906,2.07146457 17.7794829,2.71137995 C15.2371652,6.46430963 14.2857143,7.86886597 14.2857143,10.7226562 C14.2857143,12.6051712 15.1832217,14.3699417 16.6666667,15.4859543 L16.6666667,23.828125 L11.9047619,23.828125 L11.9047619,10.7226562 C11.9047619,10.5360337 11.8550037,10.3414993 11.7792038,10.1897812 L7.01729905,0.658531219 C6.81547619,0.2550354 6.40345976,0 5.95238095,0 C5.50130214,0 5.08928571,0.2550354 4.88746286,0.658531219 L0.125558095,10.1897812 C0.0488280952,10.3433609 0,10.5392914 0,10.7226562 L0,50.2773438 C0,56.1896973 4.80654762,61 10.7142857,61 Z M44.047619,30.9765625 C46.0170201,30.9765625 47.6190476,32.5798416 47.6190476,34.5507812 L47.6190476,45.5117188 C47.6190476,47.4826584 46.0170201,49.0859375 44.047619,49.0859375 L40.4761905,49.0859375 L40.4761905,30.9765625 L44.047619,30.9765625 Z M30.952381,21.4453125 L33.3333333,21.4453125 C33.9908855,21.4453125 34.5238095,20.9119721 34.5238095,20.2539062 C34.5238095,19.5958404 33.9908855,19.0625 33.3333333,19.0625 L30.952381,19.0625 L30.952381,16.6796875 L33.3333333,16.6796875 C33.9908855,16.6796875 34.5238095,16.1463471 34.5238095,15.4882813 C34.5238095,14.8302154 33.9908855,14.296875 33.3333333,14.296875 L30.952381,14.296875 L30.952381,11.9140625 L33.3333333,11.9140625 C33.9908855,11.9140625 34.5238095,11.3807221 34.5238095,10.7226562 C34.5238095,10.0645904 33.9908855,9.53125 33.3333333,9.53125 L30.952381,9.53125 L30.952381,7.1484375 L33.3333333,7.1484375 C33.9908855,7.1484375 34.5238095,6.61509711 34.5238095,5.95703125 C34.5238095,5.29896539 33.9908855,4.765625 33.3333333,4.765625 L30.952381,4.765625 L30.952381,2.3828125 L38.0952381,2.3828125 L38.0952381,23.828125 L30.952381,23.828125 L30.952381,21.4453125 Z M19.750279,4.04845431 C19.9055989,3.81901556 20.0678943,3.57887262 20.2376302,3.32756048 C20.4106213,3.58352661 20.5757069,3.82692721 20.7333519,4.06008911 C23.1808036,7.67386624 23.8095238,8.6204758 23.8095238,10.7226562 C23.8095238,12.001091 23.1198846,13.1906357 22.0098586,13.8263626 L22.0098586,13.8268281 C21.4727493,14.1344528 20.860305,14.296875 20.2380952,14.296875 C18.2361421,14.296875 16.6666667,12.6619492 16.6666667,10.7226562 C16.6666667,8.60046387 17.3200335,7.63616943 19.750279,4.04845431 Z M19.047619,16.5582199 C19.438244,16.6378022 19.8367745,16.6796875 20.2380952,16.6796875 C20.639416,16.6796875 21.0379464,16.6378022 21.4285714,16.5582199 L21.4285714,23.828125 L19.047619,23.828125 L19.047619,16.5582199 Z M7.14285714,23.828125 L7.14285714,11.9140625 L9.52380952,11.9140625 L9.52380952,23.828125 L7.14285714,23.828125 Z M2.38095238,23.828125 L2.38095238,11.9140625 L4.76190476,11.9140625 L4.76190476,23.828125 L2.38095238,23.828125 Z M5.95238095,3.85531616 L8.78813238,9.53125 L3.11662952,9.53125 L5.95238095,3.85531616 Z M2.38095238,26.2109375 L38.0952381,26.2109375 L38.0952381,50.2773438 C38.0952381,54.8758926 34.3568638,58.6171875 29.7619048,58.6171875 L10.7142857,58.6171875 C6.11932667,58.6171875 2.38095238,54.8758926 2.38095238,50.2773438 L2.38095238,26.2109375 Z" id="Shape" fill="#000000"></path>
                <path d="M13.2,31 L22.8,31 C23.4628126,31 24,30.5523438 24,30 C24,29.4476562 23.4628126,29 22.8,29 L13.2,29 C12.5371874,29 12,29.4476562 12,30 C12,30.5523438 12.5371874,31 13.2,31 Z" id="Shape" fill="#FFFFFF"></path>
            </g>
        </g>
    </g>
</svg>