<?xml version="1.0" encoding="UTF-8"?>
<svg width="50px" height="50px" viewBox="0 0 50 50" version="1.1" xmlns="http://www.w3.org/2000/svg" xmlns:xlink="http://www.w3.org/1999/xlink">
    <!-- Generator: Sketch 53.2 (72643) - https://sketchapp.com -->
    <title>pipette-tool</title>
    <desc>Created with Sketch.</desc>
    <g id="Page-1" stroke="none" stroke-width="1" fill="none" fill-rule="evenodd">
        <g id="作品详情展开" transform="translate(-295.000000, -823.000000)" fill-rule="nonzero">
            <g id="pipette-tool" transform="translate(295.000000, 823.000000)">
                <polygon id="Shape" fill="#FFFFFF" points="49 31 49 49 37 49 37 31"></polygon>
                <path d="M43.1722402,13.9722501 L43.0863562,13.9835971 C41.5075284,14.2082659 40.0596075,14.9877987 39.0036506,16.1826283 L38.3188486,16.9205556 L39.6082436,18.2091864 C40.4757855,19.0768468 40.4757855,20.482729 39.6082436,21.3492547 C38.7410801,22.2169151 37.3347769,22.2169151 36.4679917,21.3492547 C35.652283,20.5337901 29.6067307,14.4900475 28.6506565,13.5346376 C27.7831145,12.6677337 27.7831145,11.2618516 28.6506565,10.3953258 C29.51782,9.52766547 30.9241231,9.52766547 31.7909083,10.3953258 L33.0451173,11.6491594 L33.8192083,10.9986032 C35.0143957,9.94334064 35.7937835,8.49660952 36.0185196,6.91749792 L36.0302482,6.83201782 C36.7691532,1.62113846 43.0171194,-1.09417718 47.0593424,2.94645757 C51.078108,6.96439839 48.4024621,13.229784 43.1722402,13.9722501 Z" id="Shape" fill="#FFFFFF"></path>
                <path d="M37,31.0011525 L37,49 L25.0011432,49 L25.0011432,31.5636165 L25,31.5628482 C25.2526436,31.3845809 25.4988092,31.1978612 25.7384968,31 L25.7396399,31.0011525 L37,31.0011525 Z" id="Shape" fill="#F3CA1E"></path>
                <path d="M36,20.8692873 L30.8692878,26.1397509 L30.7958321,26.0972472 C28.7252766,24.8934807 26.1845299,24.8934807 24.1139744,26.0972472 C22.2298546,27.192857 19.9549654,27.2911469 18.0011186,26.3924964 L18,26.3924964 C18.5947301,25.2247821 19.366947,24.1424547 20.3013631,23.1914335 L29.2502797,14 L36,20.8692873 Z" id="Shape" fill="#FFFFFF"></path>
                <path d="M25,32.0007931 L25,50 L13,50 L13,39.375931 C13.5727897,39.446922 14.1695884,39.2541753 14.6097561,38.7961045 L17.5423019,35.7430926 C18.2896341,34.9665536 19.2176067,34.3795884 20.2507621,34.1511479 C21.949314,33.7743797 23.5666921,33.0454325 24.9988567,32 L25,32.0007931 Z" id="Shape" fill="#3A4379"></path>
                <path d="M30.9240018,26.9205023 C28.7817785,25.6931659 26.1530894,25.6931659 24.0108661,26.9205023 C22.0615316,28.0375642 19.7079021,28.1377787 17.6864271,27.2215325 L17.6852698,27.2215325 C17.1440237,28.2693343 16.7462869,29.3860094 16.5013181,30.5398294 C16.2814248,31.582988 15.7100881,32.5298016 14.9528065,33.2897287 L13.1473671,35.0993922 L13.1473671,31.8731842 L1,31.8731842 L1,50 L13.1473671,50 L13.1473671,39.6349655 C13.7271909,39.7042256 14.3313187,39.5161785 14.7768919,39.0692763 L17.7454511,36.0907025 C18.5019611,35.3330969 19.4413297,34.760443 20.4871729,34.5375723 C22.5707581,34.0922179 24.4815148,33.1504345 26.041214,31.8720235 C26.9960136,31.0958453 27.2143638,30.7619262 31,26.9638383 L30.9240018,26.9205023 Z" id="Shape" fill="#C61820"></path>
                <path d="M45,36 C45.5519531,36 46,35.5519532 46,35 C46,34.4480469 45.5519531,34 45,34 C44.4480469,34 44,34.4480469 44,35 C44,35.5519532 44.4480469,36 45,36 Z" id="Shape" fill="#000000"></path>
                <path d="M45,46 C45.5523438,46 46,45.5685241 46,45.0361446 L46,38.9638554 C46,38.431476 45.5523438,38 45,38 C44.4476562,38 44,38.431476 44,38.9638554 L44,45.0361446 C44,45.5685241 44.4476562,46 45,46 Z" id="Shape" fill="#000000"></path>
                <path d="M0.9765625,50 L49.0234375,50 C49.5628357,50 50,49.5627889 50,49.0233328 L50,31.150324 C50,30.610868 49.5628357,30.1736568 49.0234375,30.1736568 L28.187561,30.1736568 C30.5656434,27.7735737 33.549881,24.7611659 35.9031678,22.3862624 C37.1528625,23.4327459 39.037323,23.3903983 40.2351379,22.190929 C41.4928437,20.934233 41.4928437,18.899637 40.2355194,17.6417964 L39.6007538,17.0073444 L39.6514893,16.9527883 C39.6568299,16.9466841 39.6621704,16.9409615 39.6675109,16.9348573 C40.5773163,15.9047787 41.827774,15.231031 43.182373,15.0379866 L43.2758331,15.0253967 C45.5928803,14.6965345 47.6325988,13.3681147 48.8727569,11.3804444 C50.7408143,8.38634921 50.2159119,4.71469113 47.7481842,2.24669895 C45.2774048,-0.223963741 41.6053771,-0.744344208 38.614273,1.12276875 C36.6268158,2.36305966 35.2989197,4.40299689 34.9700928,6.72448891 L34.9590302,6.80498767 C34.7660064,8.16278394 34.0953827,9.41032358 33.0703735,10.3198449 L32.9849243,10.3911874 L32.3543549,9.76055036 C31.0962677,8.50118387 29.0611268,8.50423596 27.8068543,9.75978739 C26.6139984,10.9516264 26.5552521,12.8389594 27.6165009,14.0994705 L19.1394806,22.6548459 C17.238617,24.5562947 15.9160614,26.9724014 15.3491974,29.6334378 C15.3110504,29.8142739 15.2580262,29.9947284 15.1916504,30.1736568 L0.9765625,30.1736568 C0.437164258,30.1736568 0,30.610868 0,31.150324 L0,49.0233328 C0,49.5627889 0.437164258,50 0.9765625,50 Z M20.3098297,28.1489801 C21.6625214,28.1489801 23.0129242,27.8018054 24.2149354,27.1150863 C25.6645203,26.2868269 27.3956299,26.1227772 28.957367,26.6214116 C26.222229,29.3534091 25.9830475,29.6937165 25.1205444,30.3930254 C23.7125396,31.5436614 21.9818115,32.4089275 20.0431824,32.8221035 C18.8796997,33.0693224 17.7738189,33.6904216 16.8445587,34.6182554 L13.9091492,37.5551241 C13.521576,37.9427389 12.9013062,37.9290044 12.5278473,37.5555056 C12.1471405,37.173995 12.146759,36.5540403 12.5270844,36.1736741 L13.67836,35.0230382 C13.6817932,35.0196046 13.6848449,35.016171 13.6878967,35.0127374 L15.4640197,33.237187 C15.9545898,32.7469459 16.3612365,32.2036748 16.6740418,31.6226341 C16.6759491,31.6188191 16.6782379,31.6153854 16.6801453,31.6115704 C16.6801453,31.6111888 16.6805268,31.6108073 16.6809082,31.6104258 C16.9517518,31.1026352 17.1470643,30.5734799 17.2599793,30.0389836 C17.4243927,29.2675692 17.6643371,28.5152303 17.9748535,27.7930306 C18.7351227,28.0291857 19.5224762,28.1489801 20.3098297,28.1489801 L20.3098297,28.1489801 Z M36.0351562,32.1269911 L36.0351562,48.0466657 L25.9765625,48.0466657 L25.9765625,32.2040563 C26.0101318,32.1784951 26.0433197,32.1525524 26.0765076,32.1269911 L36.0351562,32.1269911 Z M13.9648437,39.6988321 C14.4592285,39.5691185 14.9162293,39.3100729 15.2900695,38.9361924 L18.2250977,36.0000868 C18.8861847,35.339692 19.6552276,34.9013362 20.4494477,34.7327086 C21.705246,34.4648881 22.9015351,34.0330182 24.0234375,33.4443473 L24.0234375,48.0466657 L13.9648437,48.0466657 L13.9648437,39.6988321 Z M48.046875,48.0466657 L37.9882812,48.0466657 L37.9882812,32.1269911 L48.046875,32.1269911 L48.046875,48.0466657 Z M29.1881562,11.1412373 C29.6798706,10.6487071 30.4779053,10.6460365 30.9726715,11.1412373 L32.2372437,12.405945 C32.5954438,12.7645648 33.1684112,12.7889815 33.556366,12.4631715 L34.3364716,11.8065918 C34.3425751,11.8016322 34.3486786,11.7966724 34.3544006,11.7913313 C35.7322693,10.5743125 36.6336822,8.90100699 36.8934631,7.07471569 L36.9045258,6.99383544 C37.1479034,5.27551167 38.1736756,3.7002544 39.6480561,2.77966934 C41.9223785,1.3600683 44.5747375,1.83543056 46.3672638,3.62776734 C48.1517792,5.41285549 48.6400604,8.06282821 47.2156524,10.3465507 C46.2955475,11.8214706 44.7200775,12.8477342 43.0080414,13.0907564 L42.9141998,13.1037278 C41.0972596,13.3620105 39.427948,14.2600864 38.2118225,15.6327616 L37.5293731,16.3683141 C37.171936,16.7536397 37.1833801,17.3522299 37.5545502,17.7234397 L38.854599,19.0232464 C39.3466949,19.5157765 39.3501281,20.3142783 38.8542176,20.8098605 C38.3674621,21.2970496 37.5686646,21.3092579 37.0697021,20.809479 C36.5028381,20.2425543 29.5608521,13.2998242 29.1873932,12.9263253 C28.6941528,12.4337952 28.6930084,11.635675 29.1881562,11.1412373 Z M20.5238342,24.0332437 L28.9886475,15.4896951 L34.5127105,21.0147318 L30.4531098,25.1121557 C28.1616211,24.0538452 25.4577637,24.1553271 23.2460021,25.4188902 C21.9264984,26.1731366 20.370102,26.3810599 18.9155578,26.0289256 C19.3786621,25.3101597 19.91539,24.6413715 20.5238342,24.0332437 L20.5238342,24.0332437 Z M1.953125,32.1269911 L12.0117188,32.1269911 L12.0117188,33.9273397 L11.1465454,34.7922243 C10.0048065,35.9340855 10.004425,37.7928052 11.1465454,38.9361924 C11.3967896,39.186845 11.6920471,39.3867565 12.0117188,39.531349 L12.0117188,48.0466657 L1.953125,48.0466657 L1.953125,32.1269911 Z" id="Shape" fill="#000000"></path>
            </g>
        </g>
    </g>
</svg>