<?xml version="1.0" encoding="UTF-8"?>
<svg width="70px" height="45px" viewBox="0 0 70 45" version="1.1" xmlns="http://www.w3.org/2000/svg" xmlns:xlink="http://www.w3.org/1999/xlink">
    <!-- Generator: Sketch 53.2 (72643) - https://sketchapp.com -->
    <title>Visual</title>
    <desc>Created with Sketch.</desc>
    <g id="Page-1" stroke="none" stroke-width="1" fill="none" fill-rule="evenodd">
        <g id="发布" transform="translate(-153.000000, -115.000000)">
            <g id="Form_Dropdown" transform="translate(-38.000000, 0.000000)">
                <g id="Visual" transform="translate(191.000000, 115.000000)">
                    <path d="M57.077597,31.2352941 L57.077597,30 L57.6032541,30 L57.6032541,31.2352941 L58.8297872,31.2352941 L58.8297872,31.7647059 L57.6032541,31.7647059 L57.6032541,33 L57.077597,33 L57.077597,31.7647059 L55.8510638,31.7647059 L55.8510638,31.2352941 L57.077597,31.2352941 Z" id="Combined-Shape-Copy-7" fill="#8954BA"></path>
                    <path d="M67.3717146,19.8529412 L67.3717146,18 L68.1602003,18 L68.1602003,19.8529412 L70,19.8529412 L70,20.6470588 L68.1602003,20.6470588 L68.1602003,22.5 L67.3717146,22.5 L67.3717146,20.6470588 L65.5319149,20.6470588 L65.5319149,19.8529412 L67.3717146,19.8529412 Z" id="Combined-Shape-Copy-9" fill-opacity="0.6" fill="#303030"></path>
                    <path d="M5.95744681,12.75 L5.95744681,9.75 L7.44680851,9.75 L7.44680851,12.75 L10.4255319,12.75 L10.4255319,14.25 L7.44680851,14.25 L7.44680851,17.25 L5.95744681,17.25 L5.95744681,14.25 L2.9787234,14.25 L2.9787234,12.75 L5.95744681,12.75 Z" id="Combined-Shape-Copy-13" fill="#EBEBEB"></path>
                    <path d="M1.83979975,42.3529412 L1.83979975,40.5 L2.62828536,40.5 L2.62828536,42.3529412 L4.46808511,42.3529412 L4.46808511,43.1470588 L2.62828536,43.1470588 L2.62828536,45 L1.83979975,45 L1.83979975,43.1470588 L0,43.1470588 L0,42.3529412 L1.83979975,42.3529412 Z" id="Combined-Shape-Copy-10" fill="#717171"></path>
                    <rect id="Rectangle-40-Copy" stroke="#D8D8D8" x="56.3510638" y="0.5" width="7.19148936" height="7.25"></rect>
                    <path d="M17.6276596,3.5 L17.6276596,42.25 L47.9042553,42.25 L47.9042553,8.94128895 L41.9688214,8.94128895 L41.9688214,3.5 L17.6276596,3.5 Z" id="Rectangle-39" stroke="#979797"></path>
                    <polygon id="Rectangle-39-Copy" fill="#3A4379" points="11.9148936 24.75 25.1888355 24.75 25.1888355 27.2139799 28.2978723 27.2139799 28.2978723 42.75 11.9148936 42.75"></polygon>
                </g>
            </g>
        </g>
    </g>
</svg>